# Utah teapot (Newell), bicubic Bezier tessellation
# 800 vertices, 1024 triangles, 4x4 per patch
v 0.368984 0.256684 0.000000
v 0.335226 0.256684 -0.170967
v 0.242664 0.256684 -0.309266
v 0.104366 0.256684 -0.401828
v -0.066602 0.256684 -0.435586
v 0.362907 0.279655 0.000000
v 0.329620 0.279655 -0.168582
v 0.238350 0.279655 -0.304951
v 0.101980 0.279655 -0.396222
v -0.066602 0.279655 -0.429509
v 0.369956 0.287312 0.000000
v 0.336123 0.287312 -0.171349
v 0.243354 0.287312 -0.309956
v 0.104747 0.287312 -0.402725
v -0.066602 0.287312 -0.436558
v 0.384298 0.279655 0.000000
v 0.349353 0.279655 -0.176978
v 0.253537 0.279655 -0.320139
v 0.110376 0.279655 -0.415955
v -0.066602 0.279655 -0.450899
v 0.400097 0.256684 0.000000
v 0.363928 0.256684 -0.183179
v 0.264754 0.256684 -0.331356
v 0.116578 0.256684 -0.430530
v -0.066602 0.256684 -0.466699
v -0.066602 0.256684 -0.435586
v -0.237569 0.256684 -0.401828
v -0.375868 0.256684 -0.309266
v -0.468430 0.256684 -0.170967
v -0.502188 0.256684 0.000000
v -0.066602 0.279655 -0.429509
v -0.235184 0.279655 -0.396222
v -0.371553 0.279655 -0.304951
v -0.462824 0.279655 -0.168582
v -0.496111 0.279655 0.000000
v -0.066602 0.287312 -0.436558
v -0.237951 0.287312 -0.402725
v -0.376558 0.287312 -0.309956
v -0.469327 0.287312 -0.171349
v -0.503160 0.287312 0.000000
v -0.066602 0.279655 -0.450899
v -0.243580 0.279655 -0.415955
v -0.386740 0.279655 -0.320139
v -0.482557 0.279655 -0.176978
v -0.517501 0.279655 0.000000
v -0.066602 0.256684 -0.466699
v -0.249781 0.256684 -0.430530
v -0.397958 0.256684 -0.331356
v -0.497132 0.256684 -0.183179
v -0.533301 0.256684 0.000000
v -0.502188 0.256684 0.000000
v -0.468430 0.256684 0.170967
v -0.375868 0.256684 0.309266
v -0.237569 0.256684 0.401828
v -0.066602 0.256684 0.435586
v -0.496111 0.279655 0.000000
v -0.462824 0.279655 0.168582
v -0.371553 0.279655 0.304951
v -0.235184 0.279655 0.396222
v -0.066602 0.279655 0.429509
v -0.503160 0.287312 0.000000
v -0.469327 0.287312 0.171349
v -0.376558 0.287312 0.309956
v -0.237951 0.287312 0.402725
v -0.066602 0.287312 0.436558
v -0.517501 0.279655 0.000000
v -0.482557 0.279655 0.176978
v -0.386740 0.279655 0.320139
v -0.243580 0.279655 0.415955
v -0.066602 0.279655 0.450899
v -0.533301 0.256684 0.000000
v -0.497132 0.256684 0.183179
v -0.397958 0.256684 0.331356
v -0.249781 0.256684 0.430530
v -0.066602 0.256684 0.466699
v -0.066602 0.256684 0.435586
v 0.104366 0.256684 0.401828
v 0.242664 0.256684 0.309266
v 0.335226 0.256684 0.170967
v 0.368984 0.256684 0.000000
v -0.066602 0.279655 0.429509
v 0.101980 0.279655 0.396222
v 0.238350 0.279655 0.304951
v 0.329620 0.279655 0.168582
v 0.362907 0.279655 0.000000
v -0.066602 0.287312 0.436558
v 0.104747 0.287312 0.402725
v 0.243354 0.287312 0.309956
v 0.336123 0.287312 0.171349
v 0.369956 0.287312 0.000000
v -0.066602 0.279655 0.450899
v 0.110376 0.279655 0.415955
v 0.253537 0.279655 0.320139
v 0.349353 0.279655 0.176978
v 0.384298 0.279655 0.000000
v -0.066602 0.256684 0.466699
v 0.116578 0.256684 0.430530
v 0.264754 0.256684 0.331356
v 0.363928 0.256684 0.183179
v 0.400097 0.256684 0.000000
v 0.400097 0.256684 0.000000
v 0.363928 0.256684 -0.183179
v 0.264754 0.256684 -0.331356
v 0.116578 0.256684 -0.430530
v -0.066602 0.256684 -0.466699
v 0.457219 0.134541 0.000000
v 0.416623 0.134541 -0.205600
v 0.305311 0.134541 -0.371913
v 0.138998 0.134541 -0.483225
v -0.066602 0.134541 -0.523821
v 0.507049 0.014584 0.000000
v 0.462591 0.014584 -0.225158
v 0.340690 0.014584 -0.407292
v 0.158556 0.014584 -0.529193
v -0.066602 0.014584 -0.573651
v 0.542295 -0.100997 0.000000
v 0.495105 -0.100997 -0.238992
v 0.365715 -0.100997 -0.432316
v 0.172390 -0.100997 -0.561707
v -0.066602 -0.100997 -0.608896
v 0.555664 -0.210015 0.000000
v 0.507438 -0.210015 -0.244239
v 0.375207 -0.210015 -0.441808
v 0.177637 -0.210015 -0.574040
v -0.066602 -0.210015 -0.622265
v -0.066602 0.256684 -0.466699
v -0.249781 0.256684 -0.430530
v -0.397958 0.256684 -0.331356
v -0.497132 0.256684 -0.183179
v -0.533301 0.256684 0.000000
v -0.066602 0.134541 -0.523821
v -0.272202 0.134541 -0.483225
v -0.438515 0.134541 -0.371913
v -0.549827 0.134541 -0.205600
v -0.590423 0.134541 0.000000
v -0.066602 0.014584 -0.573651
v -0.291760 0.014584 -0.529193
v -0.473894 0.014584 -0.407292
v -0.595795 0.014584 -0.225158
v -0.640253 0.014584 0.000000
v -0.066602 -0.100997 -0.608896
v -0.305594 -0.100997 -0.561707
v -0.498918 -0.100997 -0.432316
v -0.628309 -0.100997 -0.238992
v -0.675498 -0.100997 0.000000
v -0.066602 -0.210015 -0.622265
v -0.310841 -0.210015 -0.574040
v -0.508410 -0.210015 -0.441808
v -0.640642 -0.210015 -0.244239
v -0.688867 -0.210015 0.000000
v -0.533301 0.256684 0.000000
v -0.497132 0.256684 0.183179
v -0.397958 0.256684 0.331356
v -0.249781 0.256684 0.430530
v -0.066602 0.256684 0.466699
v -0.590423 0.134541 0.000000
v -0.549827 0.134541 0.205600
v -0.438515 0.134541 0.371913
v -0.272202 0.134541 0.483225
v -0.066602 0.134541 0.523821
v -0.640253 0.014584 0.000000
v -0.595795 0.014584 0.225158
v -0.473894 0.014584 0.407292
v -0.291760 0.014584 0.529193
v -0.066602 0.014584 0.573651
v -0.675498 -0.100997 0.000000
v -0.628309 -0.100997 0.238992
v -0.498918 -0.100997 0.432316
v -0.305594 -0.100997 0.561707
v -0.066602 -0.100997 0.608896
v -0.688867 -0.210015 0.000000
v -0.640642 -0.210015 0.244239
v -0.508410 -0.210015 0.441808
v -0.310841 -0.210015 0.574040
v -0.066602 -0.210015 0.622265
v -0.066602 0.256684 0.466699
v 0.116578 0.256684 0.430530
v 0.264754 0.256684 0.331356
v 0.363928 0.256684 0.183179
v 0.400097 0.256684 0.000000
v -0.066602 0.134541 0.523821
v 0.138998 0.134541 0.483225
v 0.305311 0.134541 0.371913
v 0.416623 0.134541 0.205600
v 0.457219 0.134541 0.000000
v -0.066602 0.014584 0.573651
v 0.158556 0.014584 0.529193
v 0.340690 0.014584 0.407292
v 0.462591 0.014584 0.225158
v 0.507049 0.014584 0.000000
v -0.066602 -0.100997 0.608896
v 0.172390 -0.100997 0.561707
v 0.365715 -0.100997 0.432316
v 0.495105 -0.100997 0.238992
v 0.542295 -0.100997 0.000000
v -0.066602 -0.210015 0.622265
v 0.177637 -0.210015 0.574040
v 0.375207 -0.210015 0.441808
v 0.507438 -0.210015 0.244239
v 0.555664 -0.210015 0.000000
v 0.555664 -0.210015 0.000000
v 0.507438 -0.210015 -0.244239
v 0.375207 -0.210015 -0.441808
v 0.177637 -0.210015 -0.574040
v -0.066602 -0.210015 -0.622265
v 0.531356 -0.302261 0.000000
v 0.485015 -0.302261 -0.234699
v 0.357948 -0.302261 -0.424550
v 0.168097 -0.302261 -0.551616
v -0.066602 -0.302261 -0.597958
v 0.477880 -0.370442 0.000000
v 0.435683 -0.370442 -0.213709
v 0.319981 -0.370442 -0.386582
v 0.147107 -0.370442 -0.502285
v -0.066602 -0.370442 -0.544482
v 0.424404 -0.416748 0.000000
v 0.386351 -0.416748 -0.192720
v 0.282013 -0.416748 -0.348614
v 0.126118 -0.416748 -0.452953
v -0.066602 -0.416748 -0.491006
v 0.400097 -0.443364 0.000000
v 0.363928 -0.443364 -0.183179
v 0.264754 -0.443364 -0.331356
v 0.116578 -0.443364 -0.430530
v -0.066602 -0.443364 -0.466699
v -0.066602 -0.210015 -0.622265
v -0.310841 -0.210015 -0.574040
v -0.508410 -0.210015 -0.441808
v -0.640642 -0.210015 -0.244239
v -0.688867 -0.210015 0.000000
v -0.066602 -0.302261 -0.597958
v -0.301300 -0.302261 -0.551616
v -0.491152 -0.302261 -0.424550
v -0.618218 -0.302261 -0.234699
v -0.664560 -0.302261 0.000000
v -0.066602 -0.370442 -0.544482
v -0.280311 -0.370442 -0.502285
v -0.453184 -0.370442 -0.386582
v -0.568887 -0.370442 -0.213709
v -0.611084 -0.370442 0.000000
v -0.066602 -0.416748 -0.491006
v -0.259322 -0.416748 -0.452953
v -0.415216 -0.416748 -0.348614
v -0.519555 -0.416748 -0.192720
v -0.557608 -0.416748 0.000000
v -0.066602 -0.443364 -0.466699
v -0.249781 -0.443364 -0.430530
v -0.397958 -0.443364 -0.331356
v -0.497132 -0.443364 -0.183179
v -0.533301 -0.443364 0.000000
v -0.688867 -0.210015 0.000000
v -0.640642 -0.210015 0.244239
v -0.508410 -0.210015 0.441808
v -0.310841 -0.210015 0.574040
v -0.066602 -0.210015 0.622265
v -0.664560 -0.302261 0.000000
v -0.618218 -0.302261 0.234699
v -0.491152 -0.302261 0.424550
v -0.301300 -0.302261 0.551616
v -0.066602 -0.302261 0.597958
v -0.611084 -0.370442 0.000000
v -0.568887 -0.370442 0.213709
v -0.453184 -0.370442 0.386582
v -0.280311 -0.370442 0.502285
v -0.066602 -0.370442 0.544482
v -0.557608 -0.416748 0.000000
v -0.519555 -0.416748 0.192720
v -0.415216 -0.416748 0.348614
v -0.259322 -0.416748 0.452953
v -0.066602 -0.416748 0.491006
v -0.533301 -0.443364 0.000000
v -0.497132 -0.443364 0.183179
v -0.397958 -0.443364 0.331356
v -0.249781 -0.443364 0.430530
v -0.066602 -0.443364 0.466699
v -0.066602 -0.210015 0.622265
v 0.177637 -0.210015 0.574040
v 0.375207 -0.210015 0.441808
v 0.507438 -0.210015 0.244239
v 0.555664 -0.210015 0.000000
v -0.066602 -0.302261 0.597958
v 0.168097 -0.302261 0.551616
v 0.357948 -0.302261 0.424550
v 0.485015 -0.302261 0.234699
v 0.531356 -0.302261 0.000000
v -0.066602 -0.370442 0.544482
v 0.147107 -0.370442 0.502285
v 0.319981 -0.370442 0.386582
v 0.435683 -0.370442 0.213709
v 0.477880 -0.370442 0.000000
v -0.066602 -0.416748 0.491006
v 0.126118 -0.416748 0.452953
v 0.282013 -0.416748 0.348614
v 0.386351 -0.416748 0.192720
v 0.424404 -0.416748 0.000000
v -0.066602 -0.443364 0.466699
v 0.116578 -0.443364 0.430530
v 0.264754 -0.443364 0.331356
v 0.363928 -0.443364 0.183179
v 0.400097 -0.443364 0.000000
v -0.564414 0.140010 0.000000
v -0.559553 0.150948 -0.052504
v -0.548858 0.175012 -0.070005
v -0.538162 0.199076 -0.052504
v -0.533301 0.210015 0.000000
v -0.709772 0.138916 0.000000
v -0.714101 0.149683 -0.052504
v -0.723627 0.173371 -0.070005
v -0.733152 0.197060 -0.052504
v -0.737482 0.207827 0.000000
v -0.817210 0.131259 0.000000
v -0.827540 0.140830 -0.052504
v -0.850267 0.161886 -0.070005
v -0.872995 0.182942 -0.052504
v -0.883325 0.192513 0.000000
v -0.883811 0.110476 0.000000
v -0.897408 0.116800 -0.052504
v -0.927321 0.130712 -0.070005
v -0.957234 0.144624 -0.052504
v -0.970831 0.150948 0.000000
v -0.906660 0.070005 0.000000
v -0.921245 0.070005 -0.052504
v -0.953330 0.070005 -0.070005
v -0.985416 0.070005 -0.052504
v -1.000000 0.070005 0.000000
v -0.533301 0.210015 0.000000
v -0.538162 0.199076 0.052504
v -0.548858 0.175012 0.070005
v -0.559553 0.150948 0.052504
v -0.564414 0.140010 0.000000
v -0.737482 0.207827 0.000000
v -0.733152 0.197060 0.052504
v -0.723627 0.173371 0.070005
v -0.714101 0.149683 0.052504
v -0.709772 0.138916 0.000000
v -0.883325 0.192513 0.000000
v -0.872995 0.182942 0.052504
v -0.850267 0.161886 0.070005
v -0.827540 0.140830 0.052504
v -0.817210 0.131259 0.000000
v -0.970831 0.150948 0.000000
v -0.957234 0.144624 0.052504
v -0.927321 0.130712 0.070005
v -0.897408 0.116800 0.052504
v -0.883811 0.110476 0.000000
v -1.000000 0.070005 0.000000
v -0.985416 0.070005 0.052504
v -0.953330 0.070005 0.070005
v -0.921245 0.070005 0.052504
v -0.906660 0.070005 0.000000
v -0.906660 0.070005 0.000000
v -0.921245 0.070005 -0.052504
v -0.953330 0.070005 -0.070005
v -0.985416 0.070005 -0.052504
v -1.000000 0.070005 0.000000
v -0.894507 0.006563 0.000000
v -0.907762 0.000439 -0.052504
v -0.936923 -0.013035 -0.070005
v -0.966084 -0.026508 -0.052504
v -0.979339 -0.032632 0.000000
v -0.856101 -0.070005 0.000000
v -0.865520 -0.079348 -0.052504
v -0.886242 -0.099903 -0.070005
v -0.906964 -0.120458 -0.052504
v -0.916383 -0.129801 0.000000
v -0.788527 -0.146573 0.000000
v -0.791831 -0.158109 -0.052504
v -0.799101 -0.183489 -0.070005
v -0.806370 -0.208869 -0.052504
v -0.809674 -0.220406 0.000000
v -0.688867 -0.210015 0.000000
v -0.684006 -0.224599 -0.052504
v -0.673311 -0.256684 -0.070005
v -0.662615 -0.288770 -0.052504
v -0.657754 -0.303354 0.000000
v -1.000000 0.070005 0.000000
v -0.985416 0.070005 0.052504
v -0.953330 0.070005 0.070005
v -0.921245 0.070005 0.052504
v -0.906660 0.070005 0.000000
v -0.979339 -0.032632 0.000000
v -0.966084 -0.026508 0.052504
v -0.936923 -0.013035 0.070005
v -0.907762 0.000439 0.052504
v -0.894507 0.006563 0.000000
v -0.916383 -0.129801 0.000000
v -0.906964 -0.120458 0.052504
v -0.886242 -0.099903 0.070005
v -0.865520 -0.079348 0.052504
v -0.856101 -0.070005 0.000000
v -0.809674 -0.220406 0.000000
v -0.806370 -0.208869 0.052504
v -0.799101 -0.183489 0.070005
v -0.791831 -0.158109 0.052504
v -0.788527 -0.146573 0.000000
v -0.657754 -0.303354 0.000000
v -0.662615 -0.288770 0.052504
v -0.673311 -0.256684 0.070005
v -0.684006 -0.224599 0.052504
v -0.688867 -0.210015 0.000000
v 0.462324 -0.046670 0.000000
v 0.462324 -0.086777 -0.115508
v 0.462324 -0.175012 -0.154011
v 0.462324 -0.263247 -0.115508
v 0.462324 -0.303354 0.000000
v 0.611570 -0.012397 0.000000
v 0.622964 -0.042135 -0.104296
v 0.648031 -0.107560 -0.139062
v 0.673098 -0.172984 -0.104296
v 0.684492 -0.202722 0.000000
v 0.676228 0.070005 0.000000
v 0.690812 0.052686 -0.079631
v 0.722897 0.014584 -0.106174
v 0.754983 -0.023517 -0.079631
v 0.769567 -0.040836 0.000000
v 0.711716 0.169908 0.000000
v 0.729491 0.163641 -0.054965
v 0.768595 0.149854 -0.073286
v 0.807699 0.136067 -0.054965
v 0.825474 0.129801 0.000000
v 0.773456 0.256684 0.000000
v 0.802625 0.256684 -0.043753
v 0.866796 0.256684 -0.058337
v 0.930967 0.256684 -0.043753
v 0.960136 0.256684 0.000000
v 0.462324 -0.303354 0.000000
v 0.462324 -0.263247 0.115508
v 0.462324 -0.175012 0.154011
v 0.462324 -0.086777 0.115508
v 0.462324 -0.046670 0.000000
v 0.684492 -0.202722 0.000000
v 0.673098 -0.172984 0.104296
v 0.648031 -0.107560 0.139062
v 0.622964 -0.042135 0.104296
v 0.611570 -0.012397 0.000000
v 0.769567 -0.040836 0.000000
v 0.754983 -0.023517 0.079631
v 0.722897 0.014584 0.106174
v 0.690812 0.052686 0.079631
v 0.676228 0.070005 0.000000
v 0.825474 0.129801 0.000000
v 0.807699 0.136067 0.054965
v 0.768595 0.149854 0.073286
v 0.729491 0.163641 0.054965
v 0.711716 0.169908 0.000000
v 0.960136 0.256684 0.000000
v 0.930967 0.256684 0.043753
v 0.866796 0.256684 0.058337
v 0.802625 0.256684 0.043753
v 0.773456 0.256684 0.000000
v 0.773456 0.256684 0.000000
v 0.802625 0.256684 -0.043753
v 0.866796 0.256684 -0.058337
v 0.930967 0.256684 -0.043753
v 0.960136 0.256684 0.000000
v 0.795819 0.269810 0.000000
v 0.827058 0.270451 -0.041018
v 0.895783 0.271861 -0.054691
v 0.964508 0.273271 -0.041018
v 0.995746 0.273912 0.000000
v 0.812348 0.274186 0.000000
v 0.841669 0.275211 -0.035002
v 0.906174 0.277467 -0.046670
v 0.970679 0.279723 -0.035002
v 1.000000 0.280749 0.000000
v 0.817210 0.269810 0.000000
v 0.842105 0.270708 -0.028986
v 0.896877 0.272682 -0.038649
v 0.951648 0.274656 -0.028986
v 0.976544 0.275553 0.000000
v 0.804570 0.256684 0.000000
v 0.824016 0.256684 -0.026252
v 0.866796 0.256684 -0.035002
v 0.909577 0.256684 -0.026252
v 0.929023 0.256684 0.000000
v 0.960136 0.256684 0.000000
v 0.930967 0.256684 0.043753
v 0.866796 0.256684 0.058337
v 0.802625 0.256684 0.043753
v 0.773456 0.256684 0.000000
v 0.995746 0.273912 0.000000
v 0.964508 0.273271 0.041018
v 0.895783 0.271861 0.054691
v 0.827058 0.270451 0.041018
v 0.795819 0.269810 0.000000
v 1.000000 0.280749 0.000000
v 0.970679 0.279723 0.035002
v 0.906174 0.277467 0.046670
v 0.841669 0.275211 0.035002
v 0.812348 0.274186 0.000000
v 0.976544 0.275553 0.000000
v 0.951648 0.274656 0.028986
v 0.896877 0.272682 0.038649
v 0.842105 0.270708 0.028986
v 0.817210 0.269810 0.000000
v 0.929023 0.256684 0.000000
v 0.909577 0.256684 0.026252
v 0.866796 0.256684 0.035002
v 0.824016 0.256684 0.026252
v 0.804570 0.256684 0.000000
v -0.066602 0.490034 0.000000
v -0.066602 0.490034 0.000000
v -0.066602 0.490034 0.000000
v -0.066602 0.490034 0.000000
v -0.066602 0.490034 0.000000
v 0.039378 0.474720 0.000000
v 0.031201 0.474720 -0.041708
v 0.008742 0.474720 -0.075344
v -0.024894 0.474720 -0.097803
v -0.066602 0.474720 -0.105980
v 0.034516 0.437530 0.000000
v 0.026712 0.437530 -0.039787
v 0.005280 0.437530 -0.071881
v -0.026815 0.437530 -0.093314
v -0.066602 0.437530 -0.101118
v -0.005348 0.391590 0.000000
v -0.010082 0.391590 -0.024079
v -0.023079 0.391590 -0.043523
v -0.042523 0.391590 -0.056519
v -0.066602 0.391590 -0.061254
v -0.004375 0.350024 0.000000
v -0.009198 0.350024 -0.024424
v -0.022421 0.350024 -0.044181
v -0.042178 0.350024 -0.057404
v -0.066602 0.350024 -0.062227
v -0.066602 0.490034 0.000000
v -0.066602 0.490034 0.000000
v -0.066602 0.490034 0.000000
v -0.066602 0.490034 0.000000
v -0.066602 0.490034 0.000000
v -0.066602 0.474720 -0.105980
v -0.108310 0.474720 -0.097803
v -0.141946 0.474720 -0.075344
v -0.164405 0.474720 -0.041708
v -0.172581 0.474720 0.000000
v -0.066602 0.437530 -0.101118
v -0.106389 0.437530 -0.093314
v -0.138483 0.437530 -0.071881
v -0.159916 0.437530 -0.039787
v -0.167720 0.437530 0.000000
v -0.066602 0.391590 -0.061254
v -0.090681 0.391590 -0.056519
v -0.110125 0.391590 -0.043523
v -0.123121 0.391590 -0.024079
v -0.127856 0.391590 0.000000
v -0.066602 0.350024 -0.062227
v -0.091026 0.350024 -0.057404
v -0.110783 0.350024 -0.044181
v -0.124006 0.350024 -0.024424
v -0.128828 0.350024 0.000000
v -0.066602 0.490034 0.000000
v -0.066602 0.490034 0.000000
v -0.066602 0.490034 0.000000
v -0.066602 0.490034 0.000000
v -0.066602 0.490034 0.000000
v -0.172581 0.474720 0.000000
v -0.164405 0.474720 0.041708
v -0.141946 0.474720 0.075344
v -0.108310 0.474720 0.097803
v -0.066602 0.474720 0.105980
v -0.167720 0.437530 0.000000
v -0.159916 0.437530 0.039787
v -0.138483 0.437530 0.071881
v -0.106389 0.437530 0.093314
v -0.066602 0.437530 0.101118
v -0.127856 0.391590 0.000000
v -0.123121 0.391590 0.024079
v -0.110125 0.391590 0.043523
v -0.090681 0.391590 0.056519
v -0.066602 0.391590 0.061254
v -0.128828 0.350024 0.000000
v -0.124006 0.350024 0.024424
v -0.110783 0.350024 0.044181
v -0.091026 0.350024 0.057404
v -0.066602 0.350024 0.062227
v -0.066602 0.490034 0.000000
v -0.066602 0.490034 0.000000
v -0.066602 0.490034 0.000000
v -0.066602 0.490034 0.000000
v -0.066602 0.490034 0.000000
v -0.066602 0.474720 0.105980
v -0.024894 0.474720 0.097803
v 0.008742 0.474720 0.075344
v 0.031201 0.474720 0.041708
v 0.039378 0.474720 0.000000
v -0.066602 0.437530 0.101118
v -0.026815 0.437530 0.093314
v 0.005280 0.437530 0.071881
v 0.026712 0.437530 0.039787
v 0.034516 0.437530 0.000000
v -0.066602 0.391590 0.061254
v -0.042523 0.391590 0.056519
v -0.023079 0.391590 0.043523
v -0.010082 0.391590 0.024079
v -0.005348 0.391590 0.000000
v -0.066602 0.350024 0.062227
v -0.042178 0.350024 0.057404
v -0.022421 0.350024 0.044181
v -0.009198 0.350024 0.024424
v -0.004375 0.350024 0.000000
v -0.004375 0.350024 0.000000
v -0.009198 0.350024 -0.024424
v -0.022421 0.350024 -0.044181
v -0.042178 0.350024 -0.057404
v -0.066602 0.350024 -0.062227
v 0.075352 0.322314 0.000000
v 0.064351 0.322314 -0.055717
v 0.034186 0.322314 -0.100788
v -0.010885 0.322314 -0.130953
v -0.066602 0.322314 -0.141954
v 0.190083 0.303354 0.000000
v 0.170190 0.303354 -0.100749
v 0.115644 0.303354 -0.182246
v 0.034147 0.303354 -0.236791
v -0.066602 0.303354 -0.256684
v 0.293145 0.284395 0.000000
v 0.265265 0.284395 -0.141201
v 0.188819 0.284395 -0.255421
v 0.074599 0.284395 -0.331867
v -0.066602 0.284395 -0.359747
v 0.337871 0.256684 0.000000
v 0.306524 0.256684 -0.158755
v 0.220574 0.256684 -0.287175
v 0.092154 0.256684 -0.373126
v -0.066602 0.256684 -0.404473
v -0.066602 0.350024 -0.062227
v -0.091026 0.350024 -0.057404
v -0.110783 0.350024 -0.044181
v -0.124006 0.350024 -0.024424
v -0.128828 0.350024 0.000000
v -0.066602 0.322314 -0.141954
v -0.122319 0.322314 -0.130953
v -0.167389 0.322314 -0.100788
v -0.197555 0.322314 -0.055717
v -0.208556 0.322314 0.000000
v -0.066602 0.303354 -0.256684
v -0.167351 0.303354 -0.236791
v -0.248848 0.303354 -0.182246
v -0.303393 0.303354 -0.100749
v -0.323286 0.303354 0.000000
v -0.066602 0.284395 -0.359747
v -0.207803 0.284395 -0.331867
v -0.322022 0.284395 -0.255421
v -0.398469 0.284395 -0.141201
v -0.426349 0.284395 0.000000
v -0.066602 0.256684 -0.404473
v -0.225357 0.256684 -0.373126
v -0.353777 0.256684 -0.287175
v -0.439728 0.256684 -0.158755
v -0.471074 0.256684 0.000000
v -0.128828 0.350024 0.000000
v -0.124006 0.350024 0.024424
v -0.110783 0.350024 0.044181
v -0.091026 0.350024 0.057404
v -0.066602 0.350024 0.062227
v -0.208556 0.322314 0.000000
v -0.197555 0.322314 0.055717
v -0.167389 0.322314 0.100788
v -0.122319 0.322314 0.130953
v -0.066602 0.322314 0.141954
v -0.323286 0.303354 0.000000
v -0.303393 0.303354 0.100749
v -0.248848 0.303354 0.182246
v -0.167351 0.303354 0.236791
v -0.066602 0.303354 0.256684
v -0.426349 0.284395 0.000000
v -0.398469 0.284395 0.141201
v -0.322022 0.284395 0.255421
v -0.207803 0.284395 0.331867
v -0.066602 0.284395 0.359747
v -0.471074 0.256684 0.000000
v -0.439728 0.256684 0.158755
v -0.353777 0.256684 0.287175
v -0.225357 0.256684 0.373126
v -0.066602 0.256684 0.404473
v -0.066602 0.350024 0.062227
v -0.042178 0.350024 0.057404
v -0.022421 0.350024 0.044181
v -0.009198 0.350024 0.024424
v -0.004375 0.350024 0.000000
v -0.066602 0.322314 0.141954
v -0.010885 0.322314 0.130953
v 0.034186 0.322314 0.100788
v 0.064351 0.322314 0.055717
v 0.075352 0.322314 0.000000
v -0.066602 0.303354 0.256684
v 0.034147 0.303354 0.236791
v 0.115644 0.303354 0.182246
v 0.170190 0.303354 0.100749
v 0.190083 0.303354 0.000000
v -0.066602 0.284395 0.359747
v 0.074599 0.284395 0.331867
v 0.188819 0.284395 0.255421
v 0.265265 0.284395 0.141201
v 0.293145 0.284395 0.000000
v -0.066602 0.256684 0.404473
v 0.092154 0.256684 0.373126
v 0.220574 0.256684 0.287175
v 0.306524 0.256684 0.158755
v 0.337871 0.256684 0.000000
v -0.066602 -0.490034 0.000000
v -0.066602 -0.490034 0.000000
v -0.066602 -0.490034 0.000000
v -0.066602 -0.490034 0.000000
v -0.066602 -0.490034 0.000000
v 0.193364 -0.486023 0.000000
v 0.173217 -0.486023 0.102037
v 0.117974 -0.486023 0.184576
v 0.035435 -0.486023 0.239819
v -0.066602 -0.486023 0.259966
v 0.333009 -0.475450 0.000000
v 0.302039 -0.475450 0.156847
v 0.217122 -0.475450 0.283724
v 0.090246 -0.475450 0.368641
v -0.066602 -0.475450 0.399611
v 0.389524 -0.460501 0.000000
v 0.354174 -0.460501 0.179029
v 0.257247 -0.460501 0.323849
v 0.112427 -0.460501 0.420776
v -0.066602 -0.460501 0.456125
v 0.400097 -0.443364 0.000000
v 0.363928 -0.443364 0.183179
v 0.264754 -0.443364 0.331356
v 0.116578 -0.443364 0.430530
v -0.066602 -0.443364 0.466699
v -0.066602 -0.490034 0.000000
v -0.066602 -0.490034 0.000000
v -0.066602 -0.490034 0.000000
v -0.066602 -0.490034 0.000000
v -0.066602 -0.490034 0.000000
v -0.066602 -0.486023 0.259966
v -0.168638 -0.486023 0.239819
v -0.251178 -0.486023 0.184576
v -0.306420 -0.486023 0.102037
v -0.326568 -0.486023 0.000000
v -0.066602 -0.475450 0.399611
v -0.223449 -0.475450 0.368641
v -0.350326 -0.475450 0.283724
v -0.435243 -0.475450 0.156847
v -0.466213 -0.475450 0.000000
v -0.066602 -0.460501 0.456125
v -0.245631 -0.460501 0.420776
v -0.390451 -0.460501 0.323849
v -0.487378 -0.460501 0.179029
v -0.522727 -0.460501 0.000000
v -0.066602 -0.443364 0.466699
v -0.249781 -0.443364 0.430530
v -0.397958 -0.443364 0.331356
v -0.497132 -0.443364 0.183179
v -0.533301 -0.443364 0.000000
v -0.066602 -0.490034 0.000000
v -0.066602 -0.490034 0.000000
v -0.066602 -0.490034 0.000000
v -0.066602 -0.490034 0.000000
v -0.066602 -0.490034 0.000000
v -0.326568 -0.486023 0.000000
v -0.306420 -0.486023 -0.102037
v -0.251178 -0.486023 -0.184576
v -0.168638 -0.486023 -0.239819
v -0.066602 -0.486023 -0.259966
v -0.466213 -0.475450 0.000000
v -0.435243 -0.475450 -0.156847
v -0.350326 -0.475450 -0.283724
v -0.223449 -0.475450 -0.368641
v -0.066602 -0.475450 -0.399611
v -0.522727 -0.460501 0.000000
v -0.487378 -0.460501 -0.179029
v -0.390451 -0.460501 -0.323849
v -0.245631 -0.460501 -0.420776
v -0.066602 -0.460501 -0.456125
v -0.533301 -0.443364 0.000000
v -0.497132 -0.443364 -0.183179
v -0.397958 -0.443364 -0.331356
v -0.249781 -0.443364 -0.430530
v -0.066602 -0.443364 -0.466699
v -0.066602 -0.490034 0.000000
v -0.066602 -0.490034 0.000000
v -0.066602 -0.490034 0.000000
v -0.066602 -0.490034 0.000000
v -0.066602 -0.490034 0.000000
v -0.066602 -0.486023 -0.259966
v 0.035435 -0.486023 -0.239819
v 0.117974 -0.486023 -0.184576
v 0.173217 -0.486023 -0.102037
v 0.193364 -0.486023 0.000000
v -0.066602 -0.475450 -0.399611
v 0.090246 -0.475450 -0.368641
v 0.217122 -0.475450 -0.283724
v 0.302039 -0.475450 -0.156847
v 0.333009 -0.475450 0.000000
v -0.066602 -0.460501 -0.456125
v 0.112427 -0.460501 -0.420776
v 0.257247 -0.460501 -0.323849
v 0.354174 -0.460501 -0.179029
v 0.389524 -0.460501 0.000000
v -0.066602 -0.443364 -0.466699
v 0.116578 -0.443364 -0.430530
v 0.264754 -0.443364 -0.331356
v 0.363928 -0.443364 -0.183179
v 0.400097 -0.443364 0.000000
f 1 6 7
f 1 7 2
f 2 7 8
f 2 8 3
f 3 8 9
f 3 9 4
f 4 9 10
f 4 10 5
f 6 11 12
f 6 12 7
f 7 12 13
f 7 13 8
f 8 13 14
f 8 14 9
f 9 14 15
f 9 15 10
f 11 16 17
f 11 17 12
f 12 17 18
f 12 18 13
f 13 18 19
f 13 19 14
f 14 19 20
f 14 20 15
f 16 21 22
f 16 22 17
f 17 22 23
f 17 23 18
f 18 23 24
f 18 24 19
f 19 24 25
f 19 25 20
f 26 31 32
f 26 32 27
f 27 32 33
f 27 33 28
f 28 33 34
f 28 34 29
f 29 34 35
f 29 35 30
f 31 36 37
f 31 37 32
f 32 37 38
f 32 38 33
f 33 38 39
f 33 39 34
f 34 39 40
f 34 40 35
f 36 41 42
f 36 42 37
f 37 42 43
f 37 43 38
f 38 43 44
f 38 44 39
f 39 44 45
f 39 45 40
f 41 46 47
f 41 47 42
f 42 47 48
f 42 48 43
f 43 48 49
f 43 49 44
f 44 49 50
f 44 50 45
f 51 56 57
f 51 57 52
f 52 57 58
f 52 58 53
f 53 58 59
f 53 59 54
f 54 59 60
f 54 60 55
f 56 61 62
f 56 62 57
f 57 62 63
f 57 63 58
f 58 63 64
f 58 64 59
f 59 64 65
f 59 65 60
f 61 66 67
f 61 67 62
f 62 67 68
f 62 68 63
f 63 68 69
f 63 69 64
f 64 69 70
f 64 70 65
f 66 71 72
f 66 72 67
f 67 72 73
f 67 73 68
f 68 73 74
f 68 74 69
f 69 74 75
f 69 75 70
f 76 81 82
f 76 82 77
f 77 82 83
f 77 83 78
f 78 83 84
f 78 84 79
f 79 84 85
f 79 85 80
f 81 86 87
f 81 87 82
f 82 87 88
f 82 88 83
f 83 88 89
f 83 89 84
f 84 89 90
f 84 90 85
f 86 91 92
f 86 92 87
f 87 92 93
f 87 93 88
f 88 93 94
f 88 94 89
f 89 94 95
f 89 95 90
f 91 96 97
f 91 97 92
f 92 97 98
f 92 98 93
f 93 98 99
f 93 99 94
f 94 99 100
f 94 100 95
f 101 106 107
f 101 107 102
f 102 107 108
f 102 108 103
f 103 108 109
f 103 109 104
f 104 109 110
f 104 110 105
f 106 111 112
f 106 112 107
f 107 112 113
f 107 113 108
f 108 113 114
f 108 114 109
f 109 114 115
f 109 115 110
f 111 116 117
f 111 117 112
f 112 117 118
f 112 118 113
f 113 118 119
f 113 119 114
f 114 119 120
f 114 120 115
f 116 121 122
f 116 122 117
f 117 122 123
f 117 123 118
f 118 123 124
f 118 124 119
f 119 124 125
f 119 125 120
f 126 131 132
f 126 132 127
f 127 132 133
f 127 133 128
f 128 133 134
f 128 134 129
f 129 134 135
f 129 135 130
f 131 136 137
f 131 137 132
f 132 137 138
f 132 138 133
f 133 138 139
f 133 139 134
f 134 139 140
f 134 140 135
f 136 141 142
f 136 142 137
f 137 142 143
f 137 143 138
f 138 143 144
f 138 144 139
f 139 144 145
f 139 145 140
f 141 146 147
f 141 147 142
f 142 147 148
f 142 148 143
f 143 148 149
f 143 149 144
f 144 149 150
f 144 150 145
f 151 156 157
f 151 157 152
f 152 157 158
f 152 158 153
f 153 158 159
f 153 159 154
f 154 159 160
f 154 160 155
f 156 161 162
f 156 162 157
f 157 162 163
f 157 163 158
f 158 163 164
f 158 164 159
f 159 164 165
f 159 165 160
f 161 166 167
f 161 167 162
f 162 167 168
f 162 168 163
f 163 168 169
f 163 169 164
f 164 169 170
f 164 170 165
f 166 171 172
f 166 172 167
f 167 172 173
f 167 173 168
f 168 173 174
f 168 174 169
f 169 174 175
f 169 175 170
f 176 181 182
f 176 182 177
f 177 182 183
f 177 183 178
f 178 183 184
f 178 184 179
f 179 184 185
f 179 185 180
f 181 186 187
f 181 187 182
f 182 187 188
f 182 188 183
f 183 188 189
f 183 189 184
f 184 189 190
f 184 190 185
f 186 191 192
f 186 192 187
f 187 192 193
f 187 193 188
f 188 193 194
f 188 194 189
f 189 194 195
f 189 195 190
f 191 196 197
f 191 197 192
f 192 197 198
f 192 198 193
f 193 198 199
f 193 199 194
f 194 199 200
f 194 200 195
f 201 206 207
f 201 207 202
f 202 207 208
f 202 208 203
f 203 208 209
f 203 209 204
f 204 209 210
f 204 210 205
f 206 211 212
f 206 212 207
f 207 212 213
f 207 213 208
f 208 213 214
f 208 214 209
f 209 214 215
f 209 215 210
f 211 216 217
f 211 217 212
f 212 217 218
f 212 218 213
f 213 218 219
f 213 219 214
f 214 219 220
f 214 220 215
f 216 221 222
f 216 222 217
f 217 222 223
f 217 223 218
f 218 223 224
f 218 224 219
f 219 224 225
f 219 225 220
f 226 231 232
f 226 232 227
f 227 232 233
f 227 233 228
f 228 233 234
f 228 234 229
f 229 234 235
f 229 235 230
f 231 236 237
f 231 237 232
f 232 237 238
f 232 238 233
f 233 238 239
f 233 239 234
f 234 239 240
f 234 240 235
f 236 241 242
f 236 242 237
f 237 242 243
f 237 243 238
f 238 243 244
f 238 244 239
f 239 244 245
f 239 245 240
f 241 246 247
f 241 247 242
f 242 247 248
f 242 248 243
f 243 248 249
f 243 249 244
f 244 249 250
f 244 250 245
f 251 256 257
f 251 257 252
f 252 257 258
f 252 258 253
f 253 258 259
f 253 259 254
f 254 259 260
f 254 260 255
f 256 261 262
f 256 262 257
f 257 262 263
f 257 263 258
f 258 263 264
f 258 264 259
f 259 264 265
f 259 265 260
f 261 266 267
f 261 267 262
f 262 267 268
f 262 268 263
f 263 268 269
f 263 269 264
f 264 269 270
f 264 270 265
f 266 271 272
f 266 272 267
f 267 272 273
f 267 273 268
f 268 273 274
f 268 274 269
f 269 274 275
f 269 275 270
f 276 281 282
f 276 282 277
f 277 282 283
f 277 283 278
f 278 283 284
f 278 284 279
f 279 284 285
f 279 285 280
f 281 286 287
f 281 287 282
f 282 287 288
f 282 288 283
f 283 288 289
f 283 289 284
f 284 289 290
f 284 290 285
f 286 291 292
f 286 292 287
f 287 292 293
f 287 293 288
f 288 293 294
f 288 294 289
f 289 294 295
f 289 295 290
f 291 296 297
f 291 297 292
f 292 297 298
f 292 298 293
f 293 298 299
f 293 299 294
f 294 299 300
f 294 300 295
f 301 306 307
f 301 307 302
f 302 307 308
f 302 308 303
f 303 308 309
f 303 309 304
f 304 309 310
f 304 310 305
f 306 311 312
f 306 312 307
f 307 312 313
f 307 313 308
f 308 313 314
f 308 314 309
f 309 314 315
f 309 315 310
f 311 316 317
f 311 317 312
f 312 317 318
f 312 318 313
f 313 318 319
f 313 319 314
f 314 319 320
f 314 320 315
f 316 321 322
f 316 322 317
f 317 322 323
f 317 323 318
f 318 323 324
f 318 324 319
f 319 324 325
f 319 325 320
f 326 331 332
f 326 332 327
f 327 332 333
f 327 333 328
f 328 333 334
f 328 334 329
f 329 334 335
f 329 335 330
f 331 336 337
f 331 337 332
f 332 337 338
f 332 338 333
f 333 338 339
f 333 339 334
f 334 339 340
f 334 340 335
f 336 341 342
f 336 342 337
f 337 342 343
f 337 343 338
f 338 343 344
f 338 344 339
f 339 344 345
f 339 345 340
f 341 346 347
f 341 347 342
f 342 347 348
f 342 348 343
f 343 348 349
f 343 349 344
f 344 349 350
f 344 350 345
f 351 356 357
f 351 357 352
f 352 357 358
f 352 358 353
f 353 358 359
f 353 359 354
f 354 359 360
f 354 360 355
f 356 361 362
f 356 362 357
f 357 362 363
f 357 363 358
f 358 363 364
f 358 364 359
f 359 364 365
f 359 365 360
f 361 366 367
f 361 367 362
f 362 367 368
f 362 368 363
f 363 368 369
f 363 369 364
f 364 369 370
f 364 370 365
f 366 371 372
f 366 372 367
f 367 372 373
f 367 373 368
f 368 373 374
f 368 374 369
f 369 374 375
f 369 375 370
f 376 381 382
f 376 382 377
f 377 382 383
f 377 383 378
f 378 383 384
f 378 384 379
f 379 384 385
f 379 385 380
f 381 386 387
f 381 387 382
f 382 387 388
f 382 388 383
f 383 388 389
f 383 389 384
f 384 389 390
f 384 390 385
f 386 391 392
f 386 392 387
f 387 392 393
f 387 393 388
f 388 393 394
f 388 394 389
f 389 394 395
f 389 395 390
f 391 396 397
f 391 397 392
f 392 397 398
f 392 398 393
f 393 398 399
f 393 399 394
f 394 399 400
f 394 400 395
f 401 406 407
f 401 407 402
f 402 407 408
f 402 408 403
f 403 408 409
f 403 409 404
f 404 409 410
f 404 410 405
f 406 411 412
f 406 412 407
f 407 412 413
f 407 413 408
f 408 413 414
f 408 414 409
f 409 414 415
f 409 415 410
f 411 416 417
f 411 417 412
f 412 417 418
f 412 418 413
f 413 418 419
f 413 419 414
f 414 419 420
f 414 420 415
f 416 421 422
f 416 422 417
f 417 422 423
f 417 423 418
f 418 423 424
f 418 424 419
f 419 424 425
f 419 425 420
f 426 431 432
f 426 432 427
f 427 432 433
f 427 433 428
f 428 433 434
f 428 434 429
f 429 434 435
f 429 435 430
f 431 436 437
f 431 437 432
f 432 437 438
f 432 438 433
f 433 438 439
f 433 439 434
f 434 439 440
f 434 440 435
f 436 441 442
f 436 442 437
f 437 442 443
f 437 443 438
f 438 443 444
f 438 444 439
f 439 444 445
f 439 445 440
f 441 446 447
f 441 447 442
f 442 447 448
f 442 448 443
f 443 448 449
f 443 449 444
f 444 449 450
f 444 450 445
f 451 456 457
f 451 457 452
f 452 457 458
f 452 458 453
f 453 458 459
f 453 459 454
f 454 459 460
f 454 460 455
f 456 461 462
f 456 462 457
f 457 462 463
f 457 463 458
f 458 463 464
f 458 464 459
f 459 464 465
f 459 465 460
f 461 466 467
f 461 467 462
f 462 467 468
f 462 468 463
f 463 468 469
f 463 469 464
f 464 469 470
f 464 470 465
f 466 471 472
f 466 472 467
f 467 472 473
f 467 473 468
f 468 473 474
f 468 474 469
f 469 474 475
f 469 475 470
f 476 481 482
f 476 482 477
f 477 482 483
f 477 483 478
f 478 483 484
f 478 484 479
f 479 484 485
f 479 485 480
f 481 486 487
f 481 487 482
f 482 487 488
f 482 488 483
f 483 488 489
f 483 489 484
f 484 489 490
f 484 490 485
f 486 491 492
f 486 492 487
f 487 492 493
f 487 493 488
f 488 493 494
f 488 494 489
f 489 494 495
f 489 495 490
f 491 496 497
f 491 497 492
f 492 497 498
f 492 498 493
f 493 498 499
f 493 499 494
f 494 499 500
f 494 500 495
f 501 506 507
f 501 507 502
f 502 507 508
f 502 508 503
f 503 508 509
f 503 509 504
f 504 509 510
f 504 510 505
f 506 511 512
f 506 512 507
f 507 512 513
f 507 513 508
f 508 513 514
f 508 514 509
f 509 514 515
f 509 515 510
f 511 516 517
f 511 517 512
f 512 517 518
f 512 518 513
f 513 518 519
f 513 519 514
f 514 519 520
f 514 520 515
f 516 521 522
f 516 522 517
f 517 522 523
f 517 523 518
f 518 523 524
f 518 524 519
f 519 524 525
f 519 525 520
f 526 531 532
f 526 532 527
f 527 532 533
f 527 533 528
f 528 533 534
f 528 534 529
f 529 534 535
f 529 535 530
f 531 536 537
f 531 537 532
f 532 537 538
f 532 538 533
f 533 538 539
f 533 539 534
f 534 539 540
f 534 540 535
f 536 541 542
f 536 542 537
f 537 542 543
f 537 543 538
f 538 543 544
f 538 544 539
f 539 544 545
f 539 545 540
f 541 546 547
f 541 547 542
f 542 547 548
f 542 548 543
f 543 548 549
f 543 549 544
f 544 549 550
f 544 550 545
f 551 556 557
f 551 557 552
f 552 557 558
f 552 558 553
f 553 558 559
f 553 559 554
f 554 559 560
f 554 560 555
f 556 561 562
f 556 562 557
f 557 562 563
f 557 563 558
f 558 563 564
f 558 564 559
f 559 564 565
f 559 565 560
f 561 566 567
f 561 567 562
f 562 567 568
f 562 568 563
f 563 568 569
f 563 569 564
f 564 569 570
f 564 570 565
f 566 571 572
f 566 572 567
f 567 572 573
f 567 573 568
f 568 573 574
f 568 574 569
f 569 574 575
f 569 575 570
f 576 581 582
f 576 582 577
f 577 582 583
f 577 583 578
f 578 583 584
f 578 584 579
f 579 584 585
f 579 585 580
f 581 586 587
f 581 587 582
f 582 587 588
f 582 588 583
f 583 588 589
f 583 589 584
f 584 589 590
f 584 590 585
f 586 591 592
f 586 592 587
f 587 592 593
f 587 593 588
f 588 593 594
f 588 594 589
f 589 594 595
f 589 595 590
f 591 596 597
f 591 597 592
f 592 597 598
f 592 598 593
f 593 598 599
f 593 599 594
f 594 599 600
f 594 600 595
f 601 606 607
f 601 607 602
f 602 607 608
f 602 608 603
f 603 608 609
f 603 609 604
f 604 609 610
f 604 610 605
f 606 611 612
f 606 612 607
f 607 612 613
f 607 613 608
f 608 613 614
f 608 614 609
f 609 614 615
f 609 615 610
f 611 616 617
f 611 617 612
f 612 617 618
f 612 618 613
f 613 618 619
f 613 619 614
f 614 619 620
f 614 620 615
f 616 621 622
f 616 622 617
f 617 622 623
f 617 623 618
f 618 623 624
f 618 624 619
f 619 624 625
f 619 625 620
f 626 631 632
f 626 632 627
f 627 632 633
f 627 633 628
f 628 633 634
f 628 634 629
f 629 634 635
f 629 635 630
f 631 636 637
f 631 637 632
f 632 637 638
f 632 638 633
f 633 638 639
f 633 639 634
f 634 639 640
f 634 640 635
f 636 641 642
f 636 642 637
f 637 642 643
f 637 643 638
f 638 643 644
f 638 644 639
f 639 644 645
f 639 645 640
f 641 646 647
f 641 647 642
f 642 647 648
f 642 648 643
f 643 648 649
f 643 649 644
f 644 649 650
f 644 650 645
f 651 656 657
f 651 657 652
f 652 657 658
f 652 658 653
f 653 658 659
f 653 659 654
f 654 659 660
f 654 660 655
f 656 661 662
f 656 662 657
f 657 662 663
f 657 663 658
f 658 663 664
f 658 664 659
f 659 664 665
f 659 665 660
f 661 666 667
f 661 667 662
f 662 667 668
f 662 668 663
f 663 668 669
f 663 669 664
f 664 669 670
f 664 670 665
f 666 671 672
f 666 672 667
f 667 672 673
f 667 673 668
f 668 673 674
f 668 674 669
f 669 674 675
f 669 675 670
f 676 681 682
f 676 682 677
f 677 682 683
f 677 683 678
f 678 683 684
f 678 684 679
f 679 684 685
f 679 685 680
f 681 686 687
f 681 687 682
f 682 687 688
f 682 688 683
f 683 688 689
f 683 689 684
f 684 689 690
f 684 690 685
f 686 691 692
f 686 692 687
f 687 692 693
f 687 693 688
f 688 693 694
f 688 694 689
f 689 694 695
f 689 695 690
f 691 696 697
f 691 697 692
f 692 697 698
f 692 698 693
f 693 698 699
f 693 699 694
f 694 699 700
f 694 700 695
f 701 706 707
f 701 707 702
f 702 707 708
f 702 708 703
f 703 708 709
f 703 709 704
f 704 709 710
f 704 710 705
f 706 711 712
f 706 712 707
f 707 712 713
f 707 713 708
f 708 713 714
f 708 714 709
f 709 714 715
f 709 715 710
f 711 716 717
f 711 717 712
f 712 717 718
f 712 718 713
f 713 718 719
f 713 719 714
f 714 719 720
f 714 720 715
f 716 721 722
f 716 722 717
f 717 722 723
f 717 723 718
f 718 723 724
f 718 724 719
f 719 724 725
f 719 725 720
f 726 731 732
f 726 732 727
f 727 732 733
f 727 733 728
f 728 733 734
f 728 734 729
f 729 734 735
f 729 735 730
f 731 736 737
f 731 737 732
f 732 737 738
f 732 738 733
f 733 738 739
f 733 739 734
f 734 739 740
f 734 740 735
f 736 741 742
f 736 742 737
f 737 742 743
f 737 743 738
f 738 743 744
f 738 744 739
f 739 744 745
f 739 745 740
f 741 746 747
f 741 747 742
f 742 747 748
f 742 748 743
f 743 748 749
f 743 749 744
f 744 749 750
f 744 750 745
f 751 756 757
f 751 757 752
f 752 757 758
f 752 758 753
f 753 758 759
f 753 759 754
f 754 759 760
f 754 760 755
f 756 761 762
f 756 762 757
f 757 762 763
f 757 763 758
f 758 763 764
f 758 764 759
f 759 764 765
f 759 765 760
f 761 766 767
f 761 767 762
f 762 767 768
f 762 768 763
f 763 768 769
f 763 769 764
f 764 769 770
f 764 770 765
f 766 771 772
f 766 772 767
f 767 772 773
f 767 773 768
f 768 773 774
f 768 774 769
f 769 774 775
f 769 775 770
f 776 781 782
f 776 782 777
f 777 782 783
f 777 783 778
f 778 783 784
f 778 784 779
f 779 784 785
f 779 785 780
f 781 786 787
f 781 787 782
f 782 787 788
f 782 788 783
f 783 788 789
f 783 789 784
f 784 789 790
f 784 790 785
f 786 791 792
f 786 792 787
f 787 792 793
f 787 793 788
f 788 793 794
f 788 794 789
f 789 794 795
f 789 795 790
f 791 796 797
f 791 797 792
f 792 797 798
f 792 798 793
f 793 798 799
f 793 799 794
f 794 799 800
f 794 800 795
